# AST/ASF file generated using VICON BodyLanguage
# -----------------------------------------------
:version 1.10
:name VICON
:units
  mass 1.0
  length 0.45
  angle deg
:documentation
   .ast/.asf automatically generated from VICON data using
   VICON BodyBuilder and BodyLanguage model FoxedUp or BRILLIANT.MOD
:root
   order TX TY TZ RX RY RZ
   axis XYZ
   position 0 0 0  
   orientation 0 0 0 
:bonedata
  begin
     id 1 
     name lhipjoint
     direction 0.547975 -0.797114 0.253638 
     length 2.36201 
     axis 0 0 0  XYZ
  end
  begin
     id 2 
     name lfemur
     direction 0.34202 -0.939693 0  
     length 7.69075  
     axis 0 0 20  XYZ
    dof rx ry rz
    limits (-160.0 20.0)
           (-70.0 70.0)
           (-60.0 70.0)
  end
  begin
     id 3 
     name ltibia
     direction 0.34202 -0.939693 0   
     length 7.91399   
     axis 0 0 20   XYZ
    dof rx
    limits (-10.0 170.0)
  end
  begin
     id 4 
     name lfoot
     direction 0.0705293 -0.193778 0.978507   
     length 2.13618   
     axis -90 7.62852e-016 20   XYZ
    dof rx rz
    limits (-45.0 90.0)
           (-70.0 20.0)
  end
  begin
     id 5 
     name ltoes
     direction 1.53592e-011 -4.21925e-011 1   
     length 1.07518   
     axis -90 7.62852e-016 20   XYZ
    dof rx
    limits (-90.0 20.0)
  end
  begin
     id 6 
     name rhipjoint
     direction -0.57 -0.782963 0.249136   
     length 2.4047  
     axis 0 0 0  XYZ 
  end
  begin
     id 7 
     name rfemur
     direction -0.34202 -0.939693 0   
     length 7.51486   
     axis 0 0 -20   XYZ
    dof rx ry rz
    limits (-160.0 20.0)
           (-70.0 70.0)
           (-70.0 60.0)
  end
  begin
     id 8 
     name rtibia
     direction -0.34202 -0.939693 0   
     length 8.08317   
     axis 0 0 -20   XYZ
    dof rx
    limits (-10.0 170.0)
 end
 begin
     id 9 
     name rfoot
     direction -0.104954 -0.281256 0.953876   
     length 2.30343  
     axis -90 -7.62852e-016 -20   XYZ
    dof rx rz
    limits (-45.0 90.0)
           (-20.0 70.0)
  end
  begin
     id 10 
     name rtoes
     direction -1.53556e-011 -4.21922e-011 1   
     length 1.14803   
     axis -90 -7.62852e-016 -20   XYZ
    dof rx
    limits (-90.0 20.0)
  end
  begin
     id 11 
     name lowerback
     direction -0.0152855 0.99353 -0.11254   
     length 2.05311   
     axis 0 0 0   XYZ
    dof rx ry rz
    limits (-20.0 45.0)
           (-30.0 30.0)
           (-30.0 30.0)
  end
  begin
     id 12 
     name upperback
     direction -0.00157509 0.999443 -0.033332   
     length 2.06353   
     axis 0 0 0   XYZ
    dof rx ry rz
    limits (-20.0 45.0)
           (-30.0 30.0)
           (-30.0 30.0)
  end
  begin
     id 13 
     name thorax
     direction 0.00577788 0.999804 0.0189484   
     length 2.08472   
     axis 0 0 0   XYZ
    dof rx ry rz
    limits (-20.0 45.0)
           (-30.0 30.0)
           (-30.0 30.0)
  end
  begin
     id 14 
     name lowerneck
     direction -1.09301e-005 0.994719 0.10264   
     length 1.76249   
     axis 0 0 0   XYZ
    dof rx ry rz
    limits (-20.0 45.0)
           (-30.0 30.0)
           (-30.0 30.0)
  end
  begin
     id 15 
     name upperneck
     direction 0.0495018 0.988526 -0.142706   
     length 1.77897   
     axis 0 0 0   XYZ
    dof rx ry rz
    limits (-20.0 45.0)
           (-30.0 30.0)
           (-30.0 30.0)
  end
  begin
     id 16
     name head
     direction 0.0142736 0.998114 -0.0597101  
     length 1.78934  
     axis 0 0 0   XYZ
    dof rx ry rz
    limits (-20.0 45.0)
           (-30.0 30.0)
           (-30.0 30.0)
  end
  begin
     id 17 
     name lclavicle
     direction 0.918111 0.396107 -0.0130883  
     length 3.37276  
     axis 0 0 0   XYZ
    dof ry rz
    limits (-20.0 10.0)
           (0.0 20.0)
  end
  begin
     id 18 
     name lhumerus
     direction 1 -4.48975e-011 -3.26108e-027   
     length 5.34298   
     axis 180 -30 -90   XYZ
    dof rx ry rz
    limits (-60.0 90.0)
           (-90.0 90.0)
           (-90.0 90.0)
  end
  begin
     id 19
     name lradius
     direction 1 -4.48964e-011 -8.84413e-028   
     length 3.67262   
     axis 180 -30 -90   XYZ
    dof rx
    limits (-10.0 170.0)
  end
  begin
     id 20
     name lwrist
     direction 1 -4.48991e-011 -1.24264e-027   
     length 1.83631   
     axis -2.17013e-015 90 90   XYZ
    dof ry
    limits (-180.0 0.0)
 end
  begin
     id 21 
     name lhand
     direction 1 -4.48855e-011 -2.48528e-027   
     length 0.599298   
     axis 1.58582e-015 90 90   XYZ
    dof rx rz
    limits (-90.0 90.0)
           (-45.0 45.0)
  end
  begin
     id 22 
     name lfingers
     direction 1 -4.48811e-011 -4.97056e-027   
     length 0.48317   
     axis 3.17164e-015 90 90   XYZ
    dof rx
    limits (0.0 90.0)
  end
  begin
     id 23
     name lthumb
     direction 0.707107 -6.34882e-011 0.707107   
     length 0.693738   
     axis -90 45 2.85299e-015   XYZ
    dof rx rz
    limits (-45.0 45.0)
           (-45.0 45.0)
  end
  begin
     id 24 
     name rclavicle
     direction -0.920511 0.384752 -0.0680135   
     length 3.43787  
     axis 0 0 0   XYZ 
    dof ry rz
    limits (-10.0 20.0)
           (-20.0 0.0)
  end
  begin
     id 25 
     name rhumerus
     direction -0.999976 -0.00330524 0.00603274  
     length 5.5498   
     axis 180 30 90   XYZ
    dof rx ry rz
    limits (-90.0 60.0)
           (-90.0 90.0)
           (-90.0 90.0)
  end
  begin
     id 26 
     name rradius
     direction -1 -4.48967e-011 8.62438e-027   
     length 3.69401   
     axis 180 30 90   XYZ
    dof rx
    limits (-10.0 170.0)
  end
  begin
     id 27 
     name rwrist
     direction -1 -4.4897e-011 9.54866e-027   
     length 1.84701   
     axis -7.69462e-015 -90 -90   XYZ
    dof ry
    limits (-180.0 0.0)
  end
  begin
     id 28
     name rhand
     direction -1 -4.48982e-011 1.90973e-026   
     length 0.638113   
     axis -1.21857e-014 -90 -90   XYZ
    dof rx rz
    limits (-90.0 90.0)
           (-45.0 45.0)
  end
  begin
     id 29
     name rfingers
     direction -1 -4.48936e-011 3.81946e-026   
     length 0.514463   
     axis -2.43714e-014 -90 -90   XYZ
    dof rx
    limits (0.0 90.0)
  end
  begin
     id 30
     name rthumb
     direction -0.707107 -6.34942e-011 0.707107   
     length 0.738669   
     axis -90 -45 -2.85299e-015   XYZ
    dof rx rz
    limits (-45.0 45.0)
           (-45.0 45.0)
  end
:hierarchy
  begin
    root lhipjoint rhipjoint lowerback
    lhipjoint lfemur
    lfemur ltibia
    ltibia lfoot
    lfoot ltoes
    rhipjoint rfemur
    rfemur rtibia
    rtibia rfoot
    rfoot rtoes
    lowerback upperback
    upperback thorax
    thorax lowerneck lclavicle rclavicle
    lowerneck upperneck
    upperneck head
    lclavicle lhumerus
    lhumerus lradius
    lradius lwrist
    lwrist lhand lthumb
    lhand lfingers
    rclavicle rhumerus
    rhumerus rradius
    rradius rwrist
    rwrist rhand rthumb
    rhand rfingers
  end

#!OML:ASF F:\twosubjects\two\Thursday\Session 1\Rory.ASF
:FULLY-SPECIFIED
:DEGREES
111
root -0.561473 18.5549 10.0311 -178.399 60.5568 -182.375
lowerback 5.37132 -0.759877 -0.594403
upperback 3.26445 -0.937813 0.215674
thorax 0.357509 -0.436915 0.600915
lowerneck -9.36815 -7.20328 -6.70134
upperneck 32.7913 -9.40512 6.35564
head 13.1971 -3.63091 2.44016
rclavicle 3.66261e-014 -4.57205e-015
rhumerus -16.4363 13.3139 -86.2007
rradius 67.4924
rwrist -23.9975
rhand -4.54114 8.1622
rfingers 7.12502
rthumb 21.2342 -20.6947
lclavicle 3.66261e-014 -4.57205e-015
lhumerus -26.0429 -4.9325 86.803
lradius 57.3586
lwrist 3.22223
lhand -9.42057 33.3258
lfingers 7.12502
lthumb 16.5416 62.6407
rfemur -18.0421 10.5302 17.2595
rtibia 32.1139
rfoot -13.575 4.18365
rtoes 10.4258
lfemur -22.746 0.354149 -13.8251
ltibia 34.2154
lfoot -10.6301 12.5111
ltoes 0.0196927
112
root -0.557967 18.5514 9.93295 -177.677 61.5715 -181.37
lowerback 5.42125 -0.852285 -0.0456537
upperback 3.31629 -1.03482 0.271216
thorax 0.375223 -0.477537 0.355435
lowerneck -9.73816 -6.96599 -6.56624
upperneck 33.1145 -8.99916 6.05201
head 13.3548 -3.46383 2.35416
rclavicle -5.74239e-014 8.64713e-015
rhumerus -16.7787 14.7919 -86.5731
rradius 68.3614
rwrist -23.3383
rhand -6.35276 7.8433
rfingers 7.12502
rthumb 19.4932 -21.1995
lclavicle -5.74239e-014 8.64713e-015
lhumerus -25.3956 -5.15479 87.0207
lradius 57.476
lwrist 3.22843
lhand -9.30716 33.3641
lfingers 7.12502
lthumb 16.6507 62.6699
rfemur -17.6226 11.0482 17.5543
rtibia 31.7376
rfoot -13.5157 4.55797
rtoes 9.9152
lfemur -22.5301 -0.627338 -12.6785
ltibia 32.8199
lfoot -10.3051 12.4055
ltoes 4.57706
113
root -0.558505 18.5426 9.84428 -177.839 62.6625 -181.442
lowerback 5.46465 -0.90395 -0.236161
upperback 3.31752 -1.11282 0.273386
thorax 0.356767 -0.519601 0.468942
lowerneck -9.907 -6.68116 -6.38033
upperneck 33.2397 -8.50377 5.63531
head 13.3685 -3.27772 2.22943
rclavicle 3.45885e-014 -1.23246e-014
rhumerus -17.1596 16.1651 -86.8917
rradius 69.1028
rwrist -22.7245
rhand -7.54867 7.78622
rfingers 7.12502
rthumb 18.3431 -21.3689
lclavicle 3.45885e-014 -1.23246e-014
lhumerus -24.9055 -5.13235 87.3661
lradius 57.7071
lwrist 2.7596
lhand -8.76964 32.8804
lfingers 7.12502
lthumb 17.1682 62.142
rfemur -17.3391 11.567 17.2486
rtibia 31.3775
rfoot -13.4336 5.20469
rtoes 10.1601
lfemur -22.4412 -1.58359 -12.0636
ltibia 31.4726
lfoot -9.31432 12.1386
ltoes 5.31823
114
root -0.556946 18.5386 9.7533 -177.862 63.6884 -181.315
lowerback 5.60967 -0.844842 -0.304912
upperback 3.27019 -1.03937 0.253238
thorax 0.227721 -0.484091 0.485723
lowerneck -9.87477 -6.53052 -5.93188
upperneck 33.1726 -8.2169 5.05178
head 13.251 -3.17968 1.96363
rclavicle 2.17172e-014 -1.09332e-015
rhumerus -17.6908 16.8751 -87.2574
rradius 69.8807
rwrist -22.3456
rhand -7.8327 7.69242
rfingers 7.12502
rthumb 18.0698 -21.4882
lclavicle 2.17172e-014 -1.09332e-015
lhumerus -24.4472 -5.48612 87.7971
lradius 57.918
lwrist 2.28898
lhand -7.3562 32.2086
lfingers 7.12502
lthumb 18.5282 61.3462
rfemur -17.0171 11.9721 17.0465
rtibia 31.0335
rfoot -13.3669 5.91591
rtoes 10.79
lfemur -22.2979 -2.57611 -11.378
ltibia 30.1109
lfoot -7.81616 11.7474
ltoes 1.89545
115
root -0.552465 18.5364 9.65412 -177.362 64.5702 -180.546
lowerback 5.77655 -0.827004 0.0192946
upperback 3.2573 -0.999948 0.263628
thorax 0.11572 -0.459975 0.315133
lowerneck -9.79267 -6.43068 -5.77658
upperneck 33.015 -8.07727 4.89138
head 13.137 -3.13228 1.8931
rclavicle -3.79306e-014 1.46107e-014
rhumerus -18.185 17.5956 -87.5563
rradius 70.73
rwrist -22.0381
rhand -7.11366 6.59642
rfingers 7.12502
rthumb 18.7615 -22.5188
lclavicle -3.79306e-014 1.46107e-014
lhumerus -23.8333 -6.3066 88.1423
lradius 57.9736
lwrist 2.49315
lhand -7.31422 32.4603
lfingers 7.12502
lthumb 18.5686 61.594
rfemur -16.5961 12.4402 17.1572
rtibia 30.7183
rfoot -13.3619 6.2095
rtoes 10.6723
lfemur -21.9409 -3.95752 -10.3522
ltibia 28.6195
lfoot -6.67571 11.2243
ltoes 1.62716
116
root -0.546432 18.5282 9.55451 -177.355 65.5734 -180.426
lowerback 5.72339 -0.941378 -0.103529
upperback 3.29231 -1.158 0.318061
thorax 0.185793 -0.541206 0.447293
lowerneck -9.77654 -6.10208 -5.97827
upperneck 32.8788 -7.60041 4.97113
head 13.0547 -2.95072 2.02621
rclavicle 3.4427e-014 -1.49089e-015
rhumerus -18.5609 19.1915 -87.8043
rradius 71.6217
rwrist -21.1998
rhand -8.93583 5.88959
rfingers 7.12502
rthumb 17.0082 -23.3858
lclavicle 3.4427e-014 -1.49089e-015
lhumerus -23.1176 -6.83908 88.3333
lradius 57.9939
lwrist 2.93304
lhand -9.47283 33.1635
lfingers 7.12502
lthumb 16.4913 62.4827
rfemur -16.3628 12.9388 16.9253
rtibia 30.5778
rfoot -13.4531 6.63873
rtoes 10.3642
lfemur -21.463 -5.62201 -9.56043
ltibia 26.8822
lfoot -5.63614 10.9992
ltoes 4.20091
117
root -0.536289 18.5263 9.46226 -178.646 66.7747 -181.847
lowerback 5.54501 -0.947808 -0.929618
upperback 3.27263 -1.20919 0.158708
thorax 0.279721 -0.578549 0.746513
lowerneck -9.90184 -5.79226 -5.92917
upperneck 32.9721 -7.14781 4.89948
head 13.0821 -2.75664 2.05431
rclavicle 1.30452e-014 -2.03754e-015
rhumerus -18.9628 20.3924 -88.2513
rradius 72.5406
rwrist -20.6116
rhand -10.795 5.32382
rfingers 7.12502
rthumb 15.218 -24.0965
lclavicle 1.30452e-014 -2.03754e-015
lhumerus -22.5294 -7.10629 88.479
lradius 58.0895
lwrist 2.70419
lhand -10.1711 33.2659
lfingers 7.12502
lthumb 15.8188 62.6396
rfemur -16.276 13.2802 16.0021
rtibia 30.3453
rfoot -13.5067 7.41666
rtoes 9.46838
lfemur -21.1391 -7.64478 -9.32102
ltibia 25.2398
lfoot -5.01748 11.3629
ltoes 6.87028
